<?xml version="1.0" encoding="UTF-8"?>
<svg version="1.1" xmlns="http://www.w3.org/2000/svg" width="345" height="240">
<path d="M0 0 C113.85 0 227.7 0 345 0 C345 79.2 345 158.4 345 240 C231.15 240 117.3 240 0 240 C0 160.8 0 81.6 0 0 Z " fill="#343432" transform="translate(0,0)"/>
<path d="M0 0 C3.07365786 1.80803404 4.43019732 2.86039464 6 6 C6.13415472 8.6723621 6.04318541 11.32250488 6 14 C2.7 14 -0.6 14 -4 14 C-4 12.35 -4 10.7 -4 9 C-5.32 9 -6.64 9 -8 9 C-6.23601031 14.59095037 -2.60828195 17.50099277 1.58984375 21.40234375 C6.01873429 26.17578331 7.51830056 30.39096517 7.29296875 36.75390625 C6.75127916 40.90685974 5.27648028 44.28598402 2.7578125 47.66796875 C-1.0192168 50.53011762 -6.5182921 49.56095158 -11 49 C-13.51972858 47.92807127 -14.93009356 46.83991684 -17 45 C-17 48.96 -17 52.92 -17 57 C-16.34 57 -15.68 57 -15 57 C-15 54.36 -15 51.72 -15 49 C-14.67 49 -14.34 49 -14 49 C-14 51.64 -14 54.28 -14 57 C-13.01 57 -12.02 57 -11 57 C-11 55.68 -11 54.36 -11 53 C-10.34 53 -9.68 53 -9 53 C-9 54.32 -9 55.64 -9 57 C-7.35 57 -5.7 57 -4 57 C-4 55.02 -4 53.04 -4 51 C-3.34 51 -2.68 51 -2 51 C-2 52.98 -2 54.96 -2 57 C0.64 57 3.28 57 6 57 C6 56.01 6 55.02 6 54 C6.66 54 7.32 54 8 54 C8.33 53.34 8.66 52.68 9 52 C9.66 52 10.32 52 11 52 C11 53.65 11 55.3 11 57 C11.66 57 12.32 57 13 57 C13 40.5 13 24 13 7 C16.3 7 19.6 7 23 7 C23.02483449 12.83495783 23.04292349 18.66988446 23.05493164 24.50488281 C23.05994103 26.48731014 23.0667504 28.46973382 23.07543945 30.45214844 C23.08765429 33.31185818 23.09326239 36.1715188 23.09765625 39.03125 C23.10281754 39.90865845 23.10797882 40.78606689 23.11329651 41.69006348 C23.11376359 46.88625006 22.75216408 51.85717573 22 57 C23.32 57 24.64 57 26 57 C26 55.02 26 53.04 26 51 C26.99 50.67 27.98 50.34 29 50 C29 52.31 29 54.62 29 57 C29.99 57 30.98 57 32 57 C32 54.36 32 51.72 32 49 C31.34 49 30.68 49 30 49 C30 35.14 30 21.28 30 7 C33.63 7 37.26 7 41 7 C41.33 7.66 41.66 8.32 42 9 C42.66 8.34 43.32 7.68 44 7 C47.375 6.5625 47.375 6.5625 51 7 C54.23033533 9.92055262 54.95456189 11.60334481 55.45410156 15.96411133 C55.45347337 17.50356326 55.43117411 19.04311332 55.390625 20.58203125 C55.38496521 21.39621017 55.37930542 22.2103891 55.37347412 23.04924011 C55.35116774 25.63760353 55.30098445 28.2245584 55.25 30.8125 C55.22992747 32.57224556 55.21167802 34.33201293 55.1953125 36.09179688 C55.15132207 40.39507005 55.08233627 44.6972966 55 49 C51.7 49 48.4 49 45 49 C45.66 49.33 46.32 49.66 47 50 C47 52.31 47 54.62 47 57 C47.66 57 48.32 57 49 57 C49 55.02 49 53.04 49 51 C49.33 51 49.66 51 50 51 C50 52.98 50 54.96 50 57 C51.32 57 52.64 57 54 57 C54.33 56.01 54.66 55.02 55 54 C55 54.99 55 55.98 55 57 C56.32 57 57.64 57 59 57 C59 54.36 59 51.72 59 49 C59.33 49 59.66 49 60 49 C60 51.64 60 54.28 60 57 C60.66 57 61.32 57 62 57 C61.9175 55.9275 61.835 54.855 61.75 53.75 C62 50 62 50 64 47.5625 C64.66 47.046875 65.32 46.53125 66 46 C66.66 46.33 67.32 46.66 68 47 C70.3329866 47.04022391 72.66706666 47.04320247 75 47 C75 46.01 75 45.02 75 44 C74.07767578 44.08701172 74.07767578 44.08701172 73.13671875 44.17578125 C72.32847656 44.22089844 71.52023437 44.26601562 70.6875 44.3125 C69.88699219 44.37050781 69.08648437 44.42851562 68.26171875 44.48828125 C66 44 66 44 64.38574219 41.87402344 C61.81951185 36.55167258 62.53023184 30.74283605 62.5625 24.9375 C62.54251953 23.65810547 62.52253906 22.37871094 62.50195312 21.06054688 C62.50291992 19.21879883 62.50291992 19.21879883 62.50390625 17.33984375 C62.50205322 16.21956787 62.5002002 15.09929199 62.49829102 13.94506836 C63.11172619 10.34415913 64.08840592 9.15134271 67 7 C70.5625 6.75 70.5625 6.75 74 7 C74.99 7 75.98 7 77 7 C80.33333333 7 83.66666667 7 87 7 C87.07426628 12.74744858 87.12865726 18.4946166 87.16479492 24.24243164 C87.17986301 26.19690823 87.20032124 28.15135112 87.22631836 30.10571289 C87.26278865 32.91821623 87.27974622 35.73027174 87.29296875 38.54296875 C87.30845261 39.41398727 87.32393646 40.2850058 87.33988953 41.18241882 C87.34120748 45.95462262 87.11691029 49.12819446 84 53 C80.99341882 55.03671629 79.80903404 55 76 55 C76 55.66 76 56.32 76 57 C80.29 57 84.58 57 89 57 C89 55.02 89 53.04 89 51 C89.33 51 89.66 51 90 51 C90 52.98 90 54.96 90 57 C90.99 57 91.98 57 93 57 C93.1546875 56.0409375 93.1546875 56.0409375 93.3125 55.0625 C93.6528125 54.0415625 93.6528125 54.0415625 94 53 C97 52 97 52 101 52 C101 55.3 101 58.6 101 62 C99.35 61.67 97.7 61.34 96 61 C96 60.01 96 59.02 96 58 C94.68 58 93.36 58 92 58 C92 59.65 92 61.3 92 63 C91.67 63 91.34 63 91 63 C91 61.35 91 59.7 91 58 C89.35 58 87.7 58 86 58 C85.67 58.99 85.34 59.98 85 61 C85 60.01 85 59.02 85 58 C84.34 58 83.68 58 83 58 C82.67 58.99 82.34 59.98 82 61 C81.67 61.66 81.34 62.32 81 63 C80.34 63 79.68 63 79 63 C79 64.65 79 66.3 79 68 C78.34 68 77.68 68 77 68 C76.67 69.65 76.34 71.3 76 73 C75.67 73 75.34 73 75 73 C75 68.05 75 63.1 75 58 C74.34 58 73.68 58 73 58 C73 63.94 73 69.88 73 76 C72.67 76 72.34 76 72 76 C72 70.06 72 64.12 72 58 C71.34 58 70.68 58 70 58 C70 62.95 70 67.9 70 73 C69.01 73.33 68.02 73.66 67 74 C67 68.72 67 63.44 67 58 C66.34 58 65.68 58 65 58 C65 63.94 65 69.88 65 76 C65.66 76.33 66.32 76.66 67 77 C65.02 77 63.04 77 61 77 C61 78.65 61 80.3 61 82 C62.65 82 64.3 82 66 82 C66 82.33 66 82.66 66 83 C64.35 83 62.7 83 61 83 C61 84.65 61 86.3 61 88 C62.65 88 64.3 88 66 88 C66 88.33 66 88.66 66 89 C64.02 89 62.04 89 60 89 C60 84.71 60 80.42 60 76 C61.32 76 62.64 76 64 76 C63.67 73.03 63.34 70.06 63 67 C62.34 67 61.68 67 61 67 C61 64.03 61 61.06 61 58 C59.68 58 58.36 58 57 58 C56.67 58.66 56.34 59.32 56 60 C56 59.34 56 58.68 56 58 C54.68 58 53.36 58 52 58 C52 59.65 52 61.3 52 63 C51.67 63 51.34 63 51 63 C51 61.35 51 59.7 51 58 C50.34 58 49.68 58 49 58 C49 59.65 49 61.3 49 63 C48.67 63 48.34 63 48 63 C47.67 65.31 47.34 67.62 47 70 C46.67 70 46.34 70 46 70 C46 66.04 46 62.08 46 58 C45.34 58 44.68 58 44 58 C44 61.3 44 64.6 44 68 C43.34 68 42.68 68 42 68 C42 64.7 42 61.4 42 58 C41.34 58 40.68 58 40 58 C40 72.19 40 86.38 40 101 C39.67 101 39.34 101 39 101 C39 86.81 39 72.62 39 58 C38.34 58 37.68 58 37 58 C37 68.23 37 78.46 37 89 C36.67 89 36.34 89 36 89 C35.67 81.74 35.34 74.48 35 67 C34.67 67 34.34 67 34 67 C34 64.03 34 61.06 34 58 C33.01 58 32.02 58 31 58 C31 59.98 31 61.96 31 64 C30.01 63.67 29.02 63.34 28 63 C28 61.35 28 59.7 28 58 C26.68 58 25.36 58 24 58 C24 60.64 24 63.28 24 66 C23.67 66 23.34 66 23 66 C23 63.36 23 60.72 23 58 C22.34 58 21.68 58 21 58 C21 70.54 21 83.08 21 96 C20.67 96 20.34 96 20 96 C19.67 92.7 19.34 89.4 19 86 C18.67 86 18.34 86 18 86 C18 76.76 18 67.52 18 58 C17.34 58 16.68 58 16 58 C16 61.3 16 64.6 16 68 C15.67 68 15.34 68 15 68 C15 64.7 15 61.4 15 58 C14.01 58 13.02 58 12 58 C11.67 58.66 11.34 59.32 11 60 C11 59.34 11 58.68 11 58 C10.34 58 9.68 58 9 58 C8.67 58.99 8.34 59.98 8 61 C8 60.01 8 59.02 8 58 C5.03 58 2.06 58 -1 58 C-1 59.98 -1 61.96 -1 64 C-1.33 64 -1.66 64 -2 64 C-2 62.02 -2 60.04 -2 58 C-3.98 58 -5.96 58 -8 58 C-8.33 59.32 -8.66 60.64 -9 62 C-9 60.68 -9 59.36 -9 58 C-9.99 58 -10.98 58 -12 58 C-12 60.64 -12 63.28 -12 66 C-12.33 66 -12.66 66 -13 66 C-13 63.69 -13 61.38 -13 59 C-13.66 59 -14.32 59 -15 59 C-15 63.95 -15 68.9 -15 74 C-15.33 74 -15.66 74 -16 74 C-16 69.05 -16 64.1 -16 59 C-16.66 59 -17.32 59 -18 59 C-18 62.63 -18 66.26 -18 70 C-18.33 70 -18.66 70 -19 70 C-19 66.37 -19 62.74 -19 59 C-20.32 59 -21.64 59 -23 59 C-23 60.32 -23 61.64 -23 63 C-23.66 63 -24.32 63 -25 63 C-25 61.68 -25 60.36 -25 59 C-25.99 59 -26.98 59 -28 59 C-28.33 59.99 -28.66 60.98 -29 62 C-29 60.68 -29 59.36 -29 58 C-29.66 58 -30.32 58 -31 58 C-31 60.64 -31 63.28 -31 66 C-31.66 66 -32.32 66 -33 66 C-33.33 67.65 -33.66 69.3 -34 71 C-34.33 71 -34.66 71 -35 71 C-35 66.71 -35 62.42 -35 58 C-35.99 58 -36.98 58 -38 58 C-38.33 59.32 -38.66 60.64 -39 62 C-39 60.68 -39 59.36 -39 58 C-39.66 58 -40.32 58 -41 58 C-41 59.98 -41 61.96 -41 64 C-41.33 64 -41.66 64 -42 64 C-42 62.02 -42 60.04 -42 58 C-43.32 58 -44.64 58 -46 58 C-46.33 58.99 -46.66 59.98 -47 61 C-47 60.01 -47 59.02 -47 58 C-47.99 58 -48.98 58 -50 58 C-50 59.98 -50 61.96 -50 64 C-50.33 64 -50.66 64 -51 64 C-51 62.02 -51 60.04 -51 58 C-51.99 58 -52.98 58 -54 58 C-54 61.63 -54 65.26 -54 69 C-54.66 69 -55.32 69 -56 69 C-56 82.86 -56 96.72 -56 111 C-56.33 111 -56.66 111 -57 111 C-57.33 99.78 -57.66 88.56 -58 77 C-58.66 77 -59.32 77 -60 77 C-60.33 75.02 -60.66 73.04 -61 71 C-61.66 71 -62.32 71 -63 71 C-63.66 77.6 -64.32 84.2 -65 91 C-65.66 91 -66.32 91 -67 91 C-67 90.34 -67 89.68 -67 89 C-68.98 89 -70.96 89 -73 89 C-73 84.71 -73 80.42 -73 76 C-71.68 76 -70.36 76 -69 76 C-69.33 72.04 -69.66 68.08 -70 64 C-70.66 64 -71.32 64 -72 64 C-72.495 65.98 -72.495 65.98 -73 68 C-73.66 68 -74.32 68 -75 68 C-75.33 69.65 -75.66 71.3 -76 73 C-76.33 73 -76.66 73 -77 73 C-77 68.05 -77 63.1 -77 58 C-77.66 58 -78.32 58 -79 58 C-79.33 58.99 -79.66 59.98 -80 61 C-80 60.01 -80 59.02 -80 58 C-80.66 58 -81.32 58 -82 58 C-82.33 59.32 -82.66 60.64 -83 62 C-83 60.68 -83 59.36 -83 58 C-84.32 58 -85.64 58 -87 58 C-87 58.99 -87 59.98 -87 61 C-87.66 61 -88.32 61 -89 61 C-89 60.01 -89 59.02 -89 58 C-89.66 58 -90.32 58 -91 58 C-91 59.98 -91 61.96 -91 64 C-91.33 64 -91.66 64 -92 64 C-92 62.02 -92 60.04 -92 58 C-92.66 58 -93.32 58 -94 58 C-94 59.32 -94 60.64 -94 62 C-94.66 62 -95.32 62 -96 62 C-96 60.68 -96 59.36 -96 58 C-96.66 58 -97.32 58 -98 58 C-98 59.32 -98 60.64 -98 62 C-98.66 62 -99.32 62 -100 62 C-99.9278125 62.85980469 -99.855625 63.71960938 -99.78125 64.60546875 C-99.14114331 72.75793867 -98.87776659 80.82394294 -99 89 C-99.99 89 -100.98 89 -102 89 C-102.495 84.05 -102.495 84.05 -103 79 C-103.33 79 -103.66 79 -104 79 C-104 72.07 -104 65.14 -104 58 C-104.66 58 -105.32 58 -106 58 C-106 70.87 -106 83.74 -106 97 C-106.33 97 -106.66 97 -107 97 C-107 84.13 -107 71.26 -107 58 C-107.66 58 -108.32 58 -109 58 C-109 63.94 -109 69.88 -109 76 C-109.33 76 -109.66 76 -110 76 C-110.33 73.36 -110.66 70.72 -111 68 C-112.98 67.67 -114.96 67.34 -117 67 C-117.33 82.51 -117.66 98.02 -118 114 C-118.66 114 -119.32 114 -120 114 C-120.33 99.15 -120.66 84.3 -121 69 C-121.33 69 -121.66 69 -122 69 C-122 65.04 -122 61.08 -122 57 C-120.515 56.505 -120.515 56.505 -119 56 C-118.34 56.33 -117.68 56.66 -117 57 C-117 55.35 -117 53.7 -117 52 C-116.67 52 -116.34 52 -116 52 C-115.505 49.03 -115.505 49.03 -115 46 C-113.02 45.505 -113.02 45.505 -111 45 C-110.67 32.46 -110.34 19.92 -110 7 C-106.7 7 -103.4 7 -100 7 C-99.67 7.66 -99.34 8.32 -99 9 C-98.34 8.34 -97.68 7.68 -97 7 C-92.97895243 6.55321694 -90.86243584 6.3191296 -87.625 8.875 C-84.57496847 12.86350277 -84.87014022 16.22143478 -84.90234375 21.0703125 C-84.9037587 21.86654022 -84.90517365 22.66276794 -84.90663147 23.48312378 C-84.91223655 26.0304538 -84.92478986 28.57769647 -84.9375 31.125 C-84.94251435 32.85025915 -84.94707737 34.57551967 -84.95117188 36.30078125 C-84.96220763 40.53388791 -84.97947564 44.76692914 -85 49 C-87.31 49 -89.62 49 -92 49 C-92 51.64 -92 54.28 -92 57 C-91.34 57 -90.68 57 -90 57 C-90 55.68 -90 54.36 -90 53 C-89.34 53 -88.68 53 -88 53 C-88 54.32 -88 55.64 -88 57 C-86.68 57 -85.36 57 -84 57 C-84 55.35 -84 53.7 -84 52 C-83.67 52 -83.34 52 -83 52 C-83 53.65 -83 55.3 -83 57 C-82.34 57 -81.68 57 -81 57 C-80.67 55.68 -80.34 54.36 -80 53 C-80 54.32 -80 55.64 -80 57 C-79.34 57 -78.68 57 -78 57 C-78.10828125 55.576875 -78.10828125 55.576875 -78.21875 54.125 C-78.84884104 45.19312442 -79.15713355 36.26591807 -79.25 27.3125 C-79.2819043 25.77239258 -79.2819043 25.77239258 -79.31445312 24.20117188 C-79.33969583 18.73071612 -79.20187719 14.67035042 -76 10 C-71.28553403 6.71083769 -67.55386885 6.47106011 -62 7 C-58.27098309 8.65734085 -56.10122033 10.52082696 -54 14 C-53.64355469 16.97680664 -53.64355469 16.97680664 -53.671875 20.41015625 C-53.67703125 21.64701172 -53.6821875 22.88386719 -53.6875 24.15820312 C-53.708125 25.44662109 -53.72875 26.73503906 -53.75 28.0625 C-53.75515625 29.35478516 -53.7603125 30.64707031 -53.765625 31.97851562 C-53.84539694 41.53619081 -53.84539694 41.53619081 -55 45 C-55.22325814 47.05893621 -55.40705759 49.12233653 -55.5625 51.1875 C-55.68818359 52.81751953 -55.68818359 52.81751953 -55.81640625 54.48046875 C-55.87699219 55.31191406 -55.93757813 56.14335937 -56 57 C-55.01 57 -54.02 57 -53 57 C-53 55.02 -53 53.04 -53 51 C-52.34 51 -51.68 51 -51 51 C-51 52.98 -51 54.96 -51 57 C-50.01 57 -49.02 57 -48 57 C-48.020625 56.05125 -48.04125 55.1025 -48.0625 54.125 C-48 51 -48 51 -47 49 C-45.35 49 -43.7 49 -42 49 C-42.14622803 48.01193359 -42.29245605 47.02386719 -42.44311523 46.00585938 C-42.99007507 42.30840067 -43.53585663 38.6107688 -44.08129883 34.91308594 C-44.31665895 33.31863808 -44.55233031 31.72423612 -44.78833008 30.12988281 C-45.12925536 27.82629467 -45.46902742 25.5225388 -45.80859375 23.21875 C-45.91280136 22.51633179 -46.01700897 21.81391357 -46.12437439 21.09020996 C-46.81414212 16.40041441 -47.42566883 11.70536379 -48 7 C-44.7 7 -41.4 7 -38 7 C-37.86722656 8.35996094 -37.73445313 9.71992187 -37.59765625 11.12109375 C-37.41950273 12.89325249 -37.2411047 14.66538667 -37.0625 16.4375 C-36.97548828 17.33533203 -36.88847656 18.23316406 -36.79882812 19.15820312 C-36.71181641 20.01220703 -36.62480469 20.86621094 -36.53515625 21.74609375 C-36.456604 22.53685303 -36.37805176 23.3276123 -36.29711914 24.14233398 C-36.18448501 26.01103348 -36.18448501 26.01103348 -35 27 C-34.01 20.4 -33.02 13.8 -32 7 C-29.03 7 -26.06 7 -23 7 C-23.76051369 16.09119811 -25.30263858 25.00556716 -26.91870117 33.97753906 C-28.30632578 41.71750746 -29.40645709 49.12561758 -29 57 C-28.01 57 -27.02 57 -26 57 C-25.505 56.01 -25.505 56.01 -25 55 C-25 55.66 -25 56.32 -25 57 C-23.35 57 -21.7 57 -20 57 C-20 53.04 -20 49.08 -20 45 C-19.67 45 -19.34 45 -19 45 C-18.67 40.38 -18.34 35.76 -18 31 C-14.7 31 -11.4 31 -8 31 C-7.505 34.96 -7.505 34.96 -7 39 C-5.02 39.495 -5.02 39.495 -3 40 C-3.77617657 31.9795088 -6.76700926 28.60565007 -12.6875 23.26171875 C-16.44093989 19.59070237 -17.31345344 16.83495538 -17.4375 11.625 C-17.33861414 8.10748859 -17.17495872 5.31085578 -15.25 2.3125 C-10.3692494 -1.16034177 -5.80368338 -0.96326695 0 0 Z " fill="#71673D" transform="translate(235,90)"/>
<path d="M0 0 C19.305 0.495 19.305 0.495 39 1 C38.01880008 23.89466476 36.90267538 46.77885614 35.42687988 69.64746094 C35.26723325 72.1751043 35.11595217 74.70328987 34.97302246 77.23193359 C34.76920424 80.80103802 34.53494897 84.36690069 34.29296875 87.93359375 C34.23761459 89.00987534 34.18226044 90.08615692 34.12522888 91.1950531 C33.58587733 98.45490499 33.58587733 98.45490499 30.67114258 101.16674805 C28.29301831 101.90859414 26.44496696 102.38562948 23.96875 102.3984375 C23.24042969 102.40230469 22.51210938 102.40617187 21.76171875 102.41015625 C20.64216797 102.39275391 20.64216797 102.39275391 19.5 102.375 C18.75363281 102.38660156 18.00726563 102.39820313 17.23828125 102.41015625 C16.50996094 102.40628906 15.78164063 102.40242188 15.03125 102.3984375 C14.37705078 102.39505371 13.72285156 102.39166992 13.04882812 102.38818359 C10.05907572 101.82172669 8.34943167 100.95354397 6 99 C5.26464844 95.83300781 5.26464844 95.83300781 5.109375 91.953125 C5.05695648 90.91898468 5.05695648 90.91898468 5.003479 89.86395264 C4.8963237 87.65964172 4.82223926 85.45570548 4.75 83.25 C4.65630901 81.05936951 4.55587233 78.86914265 4.45367432 76.67889404 C4.36400412 74.681251 4.29044922 72.68290379 4.21777344 70.68457031 C4.0043644 67.07384254 3.51944094 63.57742759 3 60 C2.88457699 58.0368348 2.8023578 56.07142718 2.75390625 54.10546875 C2.72224365 52.99703613 2.69058105 51.88860352 2.65795898 50.74658203 C2.62645752 49.57208496 2.59495605 48.39758789 2.5625 47.1875 C2.2271312 36.21087199 1.58687882 25.29453573 0.66040039 14.35229492 C0.5752417 13.34142822 0.49008301 12.33056152 0.40234375 11.2890625 C0.32491943 10.40943848 0.24749512 9.52981445 0.16772461 8.62353516 C-0.01570541 5.75433722 0 2.87505536 0 0 Z " fill="#FCDB58" transform="translate(24,86)"/>
<path d="M0 0 C3.3 0 6.6 0 10 0 C10.33 0.66 10.66 1.32 11 2 C11.66 1.34 12.32 0.68 13 0 C17.02104757 -0.44678306 19.13756416 -0.6808704 22.375 1.875 C25.42503153 5.86350277 25.12985978 9.22143478 25.09765625 14.0703125 C25.0962413 14.86654022 25.09482635 15.66276794 25.09336853 16.48312378 C25.08776345 19.0304538 25.07521014 21.57769647 25.0625 24.125 C25.05748565 25.85025915 25.05292263 27.57551967 25.04882812 29.30078125 C25.03779237 33.53388791 25.02052436 37.76692914 25 42 C22.69 42 20.38 42 18 42 C18 44.64 18 47.28 18 50 C18.66 50 19.32 50 20 50 C20 48.68 20 47.36 20 46 C20.66 46 21.32 46 22 46 C22 47.32 22 48.64 22 50 C23.32 50 24.64 50 26 50 C26 48.35 26 46.7 26 45 C26.33 45 26.66 45 27 45 C27 46.65 27 48.3 27 50 C27.66 50 28.32 50 29 50 C29.33 48.68 29.66 47.36 30 46 C30 47.32 30 48.64 30 50 C30.66 50 31.32 50 32 50 C32 45.05 32 40.1 32 35 C33.32 36.65 34.64 38.3 36 40 C38.56893838 41.28446919 40.76576337 41.32977144 43.625 41.5625 C45.39875 41.706875 47.1725 41.85125 49 42 C49 49.26 49 56.52 49 64 C48.34 64 47.68 64 47 64 C46.34 70.6 45.68 77.2 45 84 C44.34 84 43.68 84 43 84 C43 83.34 43 82.68 43 82 C41.02 82 39.04 82 37 82 C37 77.71 37 73.42 37 69 C38.32 69 39.64 69 41 69 C40.67 65.04 40.34 61.08 40 57 C39.34 57 38.68 57 38 57 C37.67 58.32 37.34 59.64 37 61 C36.34 61 35.68 61 35 61 C34.67 62.65 34.34 64.3 34 66 C33.67 66 33.34 66 33 66 C33 61.05 33 56.1 33 51 C32.34 51 31.68 51 31 51 C30.67 51.99 30.34 52.98 30 54 C30 53.01 30 52.02 30 51 C29.34 51 28.68 51 28 51 C27.67 52.32 27.34 53.64 27 55 C27 53.68 27 52.36 27 51 C25.68 51 24.36 51 23 51 C23 51.99 23 52.98 23 54 C22.34 54 21.68 54 21 54 C21 53.01 21 52.02 21 51 C20.34 51 19.68 51 19 51 C19 52.98 19 54.96 19 57 C18.67 57 18.34 57 18 57 C18 55.02 18 53.04 18 51 C17.34 51 16.68 51 16 51 C16 52.32 16 53.64 16 55 C15.34 55 14.68 55 14 55 C14 53.68 14 52.36 14 51 C13.34 51 12.68 51 12 51 C12 52.32 12 53.64 12 55 C11.34 55 10.68 55 10 55 C10.0721875 55.85980469 10.144375 56.71960938 10.21875 57.60546875 C10.85885669 65.75793867 11.12223341 73.82394294 11 82 C10.01 82 9.02 82 8 82 C7.505 77.05 7.505 77.05 7 72 C6.67 72 6.34 72 6 72 C6 65.07 6 58.14 6 51 C5.34 51 4.68 51 4 51 C4 63.87 4 76.74 4 90 C3.67 90 3.34 90 3 90 C3 77.13 3 64.26 3 51 C2.34 51 1.68 51 1 51 C1 56.94 1 62.88 1 69 C0.67 69 0.34 69 0 69 C-0.33 66.36 -0.66 63.72 -1 61 C-2.98 60.67 -4.96 60.34 -7 60 C-7.33 75.51 -7.66 91.02 -8 107 C-8.66 107 -9.32 107 -10 107 C-10.33 92.15 -10.66 77.3 -11 62 C-11.33 62 -11.66 62 -12 62 C-12 58.04 -12 54.08 -12 50 C-10.515 49.505 -10.515 49.505 -9 49 C-8.34 49.33 -7.68 49.66 -7 50 C-7 48.35 -7 46.7 -7 45 C-6.67 45 -6.34 45 -6 45 C-5.505 42.03 -5.505 42.03 -5 39 C-3.02 38.505 -3.02 38.505 -1 38 C-0.67 25.46 -0.34 12.92 0 0 Z " fill="#6E653D" transform="translate(125,97)"/>
<path d="M0 0 C8.36084174 4.69459028 14.95935961 12.01163437 17.80859375 21.2265625 C18.44749362 24.57100774 18.24804494 27.83214745 18.19140625 31.23046875 C12.2367604 33.85751839 6.6332046 34.35831559 0.16796875 34.3984375 C-0.8210569 34.40458572 -0.8210569 34.40458572 -1.83006287 34.41085815 C-3.94796044 34.42035636 -6.06567811 34.42039635 -8.18359375 34.41796875 C-9.26040909 34.41855789 -9.26040909 34.41855789 -10.35897827 34.41915894 C-34.28978349 34.4034055 -34.28978349 34.4034055 -43.80859375 31.23046875 C-44.71731802 22.14322606 -41.66939779 15.25221386 -36.1328125 8.05078125 C-26.95882456 -1.77698514 -12.6209414 -4.95075602 0 0 Z " fill="#FCDC58" transform="translate(56.80859375,29.76953125)"/>
<path d="M0 0 C17 0 17 0 22 3 C24.69517088 6.52570692 24.33190211 10.6806781 24.3125 14.9375 C24.32861328 15.64068359 24.34472656 16.34386719 24.36132812 17.06835938 C24.36569121 21.72377504 23.38892291 24.12269056 21 28 C20.63931498 31.35292008 20.63931498 31.35292008 20.8125 34.8125 C20.83957031 35.97394531 20.86664063 37.13539062 20.89453125 38.33203125 C20.94673828 39.65267578 20.94673828 39.65267578 21 41 C21.33 41 21.66 41 22 41 C22 46.28 22 51.56 22 57 C23.98 57 25.96 57 28 57 C28.95074449 59.85223347 29.16200041 61.81165084 29.24609375 64.78125 C29.27896484 65.70550781 29.31183594 66.62976563 29.34570312 67.58203125 C29.4068973 69.5272249 29.46418966 71.47254522 29.51757812 73.41796875 C29.56881836 74.80435547 29.56881836 74.80435547 29.62109375 76.21875 C29.6461499 77.06373047 29.67120605 77.90871094 29.69702148 78.77929688 C29.87402778 81.28460018 29.87402778 81.28460018 32 84 C32.33 81.36 32.66 78.72 33 76 C33.66 76 34.32 76 35 76 C35 80.29 35 84.58 35 89 C30.61364256 86.80682128 29.48743095 85.08649371 27 81 C26.67 83.64 26.34 86.28 26 89 C25.34 89 24.68 89 24 89 C24 84.71 24 80.42 24 76 C24.66 76 25.32 76 26 76 C26 70.06 26 64.12 26 58 C23.36 58 20.72 58 18 58 C18 59.98 18 61.96 18 64 C17.67 64 17.34 64 17 64 C16.67 65.65 16.34 67.3 16 69 C13.32072659 64.98108988 13.84398752 62.75838077 14 58 C13.34 58 12.68 58 12 58 C12 60.97 12 63.94 12 67 C11.67 67 11.34 67 11 67 C11 59.74 11 52.48 11 45 C11.66 45.99 12.32 46.98 13 48 C13.66 48 14.32 48 15 48 C15.33 47.01 15.66 46.02 16 45 C16.33 46.98 16.66 48.96 17 51 C17.33 51 17.66 51 18 51 C18.33 43.74 18.66 36.48 19 29 C18.34 29.33 17.68 29.66 17 30 C14.69 30 12.38 30 10 30 C10 36.27 10 42.54 10 49 C6.7 49 3.4 49 0 49 C0 32.83 0 16.66 0 0 Z " fill="#F7D757" transform="translate(77,90)"/>
<path d="M0 0 C0.99 0 1.98 0 3 0 C6.33333333 0 9.66666667 0 13 0 C13.07426628 5.74744858 13.12865726 11.4946166 13.16479492 17.24243164 C13.17986301 19.19690823 13.20032124 21.15135112 13.22631836 23.10571289 C13.26278865 25.91821623 13.27974622 28.73027174 13.29296875 31.54296875 C13.30845261 32.41398727 13.32393646 33.2850058 13.33988953 34.18241882 C13.34120908 38.9604071 13.10640333 42.11520835 10 46 C6.60213196 48.5104784 3.1208248 48.29940416 -1 48.3125 C-2.216875 48.32925781 -3.43375 48.34601563 -4.6875 48.36328125 C-8.15690777 47.98279195 -9.50660897 47.362488 -12 45 C-10.25 40.125 -10.25 40.125 -8 39 C-7.34 39.33 -6.68 39.66 -6 40 C-3.6670134 40.04022391 -1.33293334 40.04320247 1 40 C1 39.01 1 38.02 1 37 C0.07767578 37.08701172 0.07767578 37.08701172 -0.86328125 37.17578125 C-1.67152344 37.22089844 -2.47976563 37.26601562 -3.3125 37.3125 C-4.11300781 37.37050781 -4.91351563 37.42851562 -5.73828125 37.48828125 C-8 37 -8 37 -9.61425781 34.87402344 C-12.18048815 29.55167258 -11.46976816 23.74283605 -11.4375 17.9375 C-11.45748047 16.65810547 -11.47746094 15.37871094 -11.49804688 14.06054688 C-11.49740234 12.83271484 -11.49675781 11.60488281 -11.49609375 10.33984375 C-11.49794678 9.21956787 -11.4997998 8.09929199 -11.50170898 6.94506836 C-10.33865456 0.11785397 -6.19359893 -0.45044356 0 0 Z " fill="#FAD958" transform="translate(309,97)"/>
<path d="M0 0 C3.27468681 2.61974945 5.01446832 4.43724457 5.57568359 8.69506836 C5.57906738 9.81534424 5.58245117 10.93562012 5.5859375 12.08984375 C5.59173828 13.9315918 5.59173828 13.9315918 5.59765625 15.81054688 C5.58605469 17.08994141 5.57445312 18.36933594 5.5625 19.6875 C5.57410156 20.96302734 5.58570313 22.23855469 5.59765625 23.55273438 C5.59378906 24.78185547 5.58992188 26.01097656 5.5859375 27.27734375 C5.58255371 28.39874756 5.57916992 29.52015137 5.57568359 30.67553711 C5.13984738 34.12741473 4.26186618 35.97960934 2.1875 38.75 C-2.48150373 41.86266915 -7.34597583 41.34836278 -12.8125 40.75 C-17.05254632 38.46037499 -18.32162395 36.21616891 -19.8125 31.75 C-20.22021575 27.77830498 -20.13695507 23.8031017 -20.125 19.8125 C-20.14111328 18.74064453 -20.15722656 17.66878906 -20.17382812 16.56445312 C-20.1773174 10.92927395 -20.15188282 6.53750381 -16.8125 1.75 C-11.53700985 -1.93057453 -5.94852979 -2.64379102 0 0 Z " fill="#F8D857" transform="translate(175.8125,98.25)"/>
<path d="M0 0 C3.63 0 7.26 0 11 0 C11.33 0.66 11.66 1.32 12 2 C12.66 1.34 13.32 0.68 14 0 C17.375 -0.4375 17.375 -0.4375 21 0 C24.23033533 2.92055262 24.95456189 4.60334481 25.45410156 8.96411133 C25.45347337 10.50356326 25.43117411 12.04311332 25.390625 13.58203125 C25.38496521 14.39621017 25.37930542 15.2103891 25.37347412 16.04924011 C25.35116774 18.63760353 25.30098445 21.2245584 25.25 23.8125 C25.22992747 25.57224556 25.21167802 27.33201293 25.1953125 29.09179688 C25.15132207 33.39507005 25.08233627 37.6972966 25 42 C21.7 42 18.4 42 15 42 C15 30.78 15 19.56 15 8 C13.68 8 12.36 8 11 8 C10.67 19.22 10.34 30.44 10 42 C6.7 42 3.4 42 0 42 C0 28.14 0 14.28 0 0 Z " fill="#F7D757" transform="translate(265,97)"/>
<path d="M0 0 C3.3 0 6.6 0 10 0 C10.33 0.66 10.66 1.32 11 2 C11.66 1.34 12.32 0.68 13 0 C17.02104757 -0.44678306 19.13756416 -0.6808704 22.375 1.875 C25.42503153 5.86350277 25.12985978 9.22143478 25.09765625 14.0703125 C25.0962413 14.86654022 25.09482635 15.66276794 25.09336853 16.48312378 C25.08776345 19.0304538 25.07521014 21.57769647 25.0625 24.125 C25.05748565 25.85025915 25.05292263 27.57551967 25.04882812 29.30078125 C25.03779237 33.53388791 25.02052436 37.76692914 25 42 C21.7 42 18.4 42 15 42 C14.67 31.11 14.34 20.22 14 9 C13.01 9 12.02 9 11 9 C10.67 19.89 10.34 30.78 10 42 C6.7 42 3.4 42 0 42 C0 28.14 0 14.28 0 0 Z " fill="#FADA58" transform="translate(125,97)"/>
<path d="M0 0 C3.07365786 1.80803404 4.43019732 2.86039464 6 6 C6.13415472 8.6723621 6.04318541 11.32250488 6 14 C2.7 14 -0.6 14 -4 14 C-4 12.35 -4 10.7 -4 9 C-5.32 9 -6.64 9 -8 9 C-6.23601031 14.59095037 -2.60828195 17.50099277 1.58984375 21.40234375 C6.01873429 26.17578331 7.51830056 30.39096517 7.29296875 36.75390625 C6.75154428 40.90482721 5.27786346 44.282745 2.76171875 47.6640625 C-0.48090616 50.12299314 -4.19113378 49.51571156 -8.10546875 49.42578125 C-11 49 -11 49 -14.1875 46.6875 C-16.73357453 42.91228604 -17.12026601 40.26048303 -17.0625 35.8125 C-17.05347656 34.91144531 -17.04445312 34.01039062 -17.03515625 33.08203125 C-17.02355469 32.39496094 -17.01195312 31.70789063 -17 31 C-14.03 31 -11.06 31 -8 31 C-7.67 33.64 -7.34 36.28 -7 39 C-5.68 39.33 -4.36 39.66 -3 40 C-3.77617657 31.9795088 -6.76700926 28.60565007 -12.6875 23.26171875 C-16.44093989 19.59070237 -17.31345344 16.83495538 -17.4375 11.625 C-17.33861414 8.10748859 -17.17495872 5.31085578 -15.25 2.3125 C-10.3692494 -1.16034177 -5.80368338 -0.96326695 0 0 Z " fill="#F9D958" transform="translate(235,90)"/>
<path d="M0 0 C0.804375 0.144375 1.60875 0.28875 2.4375 0.4375 C11.68357625 1.89740678 20.74395402 2.18627751 30.08325195 2.18530273 C32.42873221 2.18749182 34.773743 2.20570873 37.11914062 2.22460938 C44.92486541 2.25285163 52.41439234 2.08188424 60 0 C58.63546018 7.1867737 55.95219688 13.43203495 50 18 C43.42170629 19.43084637 36.70167 19.14753925 30 19.125 C28.85015625 19.12886719 27.7003125 19.13273437 26.515625 19.13671875 C11.47431861 19.11939006 11.47431861 19.11939006 7.890625 16.3984375 C0 6.66666667 0 6.66666667 0 0 Z " fill="#F9D958" transform="translate(14,65)"/>
<path d="M0 0 C3.3 0 6.6 0 10 0 C10.13277344 1.35996094 10.26554688 2.71992187 10.40234375 4.12109375 C10.58049727 5.89325249 10.7588953 7.66538667 10.9375 9.4375 C11.02451172 10.33533203 11.11152344 11.23316406 11.20117188 12.15820312 C11.28818359 13.01220703 11.37519531 13.86621094 11.46484375 14.74609375 C11.543396 15.53685303 11.62194824 16.3276123 11.70288086 17.14233398 C11.81551499 19.01103348 11.81551499 19.01103348 13 20 C13.99 13.4 14.98 6.8 16 0 C18.97 0 21.94 0 25 0 C24.31174122 8.41857997 22.98051227 16.69302483 21.52587891 25.00610352 C21.12309933 27.32343523 20.73532491 29.64298946 20.34765625 31.96289062 C20.08945911 33.45068034 19.83037591 34.93831662 19.5703125 36.42578125 C19.45769073 37.11231277 19.34506897 37.7988443 19.22903442 38.50617981 C18.50079043 42.55124991 17.55275917 45.74147118 15 49 C11.64453125 49.48828125 11.64453125 49.48828125 7.8125 49.3125 C6.54019531 49.26738281 5.26789063 49.22226563 3.95703125 49.17578125 C2.49330078 49.08876953 2.49330078 49.08876953 1 49 C1 46.69 1 44.38 1 42 C2.65 42 4.3 42 6 42 C5.85377197 41.01193359 5.70754395 40.02386719 5.55688477 39.00585938 C5.00992493 35.30840067 4.46414337 31.6107688 3.91870117 27.91308594 C3.68334105 26.31863808 3.44766969 24.72423612 3.21166992 23.12988281 C2.87074464 20.82629467 2.53097258 18.5225388 2.19140625 16.21875 C2.03509483 15.16512268 2.03509483 15.16512268 1.87562561 14.09020996 C1.18585788 9.40041441 0.57433117 4.70536379 0 0 Z " fill="#F8D857" transform="translate(187,97)"/>
<path d="M0 0 C1.32 0 2.64 0 4 0 C4.33 11.55 4.66 23.1 5 35 C5.33 35 5.66 35 6 35 C6 37.31 6 39.62 6 42 C6.66 42 7.32 42 8 42 C8 40.02 8 38.04 8 36 C8.33 36 8.66 36 9 36 C9 37.98 9 39.96 9 42 C10.32 42 11.64 42 13 42 C13.33 41.01 13.66 40.02 14 39 C14 39.99 14 40.98 14 42 C15.32 42 16.64 42 18 42 C18 39.36 18 36.72 18 34 C18.33 34 18.66 34 19 34 C19 36.64 19 39.28 19 42 C19.66 42 20.32 42 21 42 C21 40.35 21 38.7 21 37 C21.82757813 37.47566406 21.82757813 37.47566406 22.671875 37.9609375 C25.28477989 39.12709975 27.40579002 39.40045711 30.25 39.625 C31.14203125 39.69976562 32.0340625 39.77453125 32.953125 39.8515625 C33.62859375 39.90054688 34.3040625 39.94953125 35 40 C35 40.66 35 41.32 35 42 C39.29 42 43.58 42 48 42 C48 40.02 48 38.04 48 36 C48.33 36 48.66 36 49 36 C49 37.98 49 39.96 49 42 C49.99 42 50.98 42 52 42 C52.103125 41.360625 52.20625 40.72125 52.3125 40.0625 C52.539375 39.381875 52.76625 38.70125 53 38 C56 37 56 37 60 37 C60 40.3 60 43.6 60 47 C58.35 46.67 56.7 46.34 55 46 C55 45.01 55 44.02 55 43 C53.68 43 52.36 43 51 43 C51 44.65 51 46.3 51 48 C50.67 48 50.34 48 50 48 C50 46.35 50 44.7 50 43 C48.35 43 46.7 43 45 43 C44.67 43.99 44.34 44.98 44 46 C44 45.01 44 44.02 44 43 C43.34 43 42.68 43 42 43 C41.67 43.99 41.34 44.98 41 46 C40.505 46.99 40.505 46.99 40 48 C39.34 48 38.68 48 38 48 C38 49.65 38 51.3 38 53 C37.34 53 36.68 53 36 53 C35.67 54.65 35.34 56.3 35 58 C34.67 58 34.34 58 34 58 C34 53.05 34 48.1 34 43 C33.34 43 32.68 43 32 43 C32 48.94 32 54.88 32 61 C31.67 61 31.34 61 31 61 C31 55.06 31 49.12 31 43 C30.34 43 29.68 43 29 43 C29 47.95 29 52.9 29 58 C27.515 58.495 27.515 58.495 26 59 C26 53.72 26 48.44 26 43 C25.34 43 24.68 43 24 43 C24 48.94 24 54.88 24 61 C24.66 61.33 25.32 61.66 26 62 C24.02 62 22.04 62 20 62 C20 63.65 20 65.3 20 67 C21.65 67 23.3 67 25 67 C25 67.33 25 67.66 25 68 C23.35 68 21.7 68 20 68 C20 69.65 20 71.3 20 73 C21.65 73 23.3 73 25 73 C25 73.33 25 73.66 25 74 C23.02 74 21.04 74 19 74 C19 69.71 19 65.42 19 61 C20.32 61 21.64 61 23 61 C22.67 58.03 22.34 55.06 22 52 C21.34 52 20.68 52 20 52 C20 49.03 20 46.06 20 43 C18.68 43 17.36 43 16 43 C15.67 43.66 15.34 44.32 15 45 C15 44.34 15 43.68 15 43 C13.68 43 12.36 43 11 43 C11 44.65 11 46.3 11 48 C10.67 48 10.34 48 10 48 C10 46.35 10 44.7 10 43 C9.34 43 8.68 43 8 43 C8 44.65 8 46.3 8 48 C7.67 48 7.34 48 7 48 C6.67 50.31 6.34 52.62 6 55 C5.67 55 5.34 55 5 55 C5 51.04 5 47.08 5 43 C4.34 43 3.68 43 3 43 C3 46.3 3 49.6 3 53 C2.34 53 1.68 53 1 53 C1 49.7 1 46.4 1 43 C0.34 43 -0.32 43 -1 43 C-1 57.19 -1 71.38 -1 86 C-1.33 86 -1.66 86 -2 86 C-2 71.81 -2 57.62 -2 43 C-2.66 43 -3.32 43 -4 43 C-4 40.03 -4 37.06 -4 34 C-3.01 34 -2.02 34 -1 34 C-1.00523682 33.04109863 -1.01047363 32.08219727 -1.01586914 31.09423828 C-1.03394679 27.54216441 -1.04544215 23.99009463 -1.05493164 20.43798828 C-1.05996552 18.89956987 -1.06679308 17.36115625 -1.07543945 15.82275391 C-1.08754639 13.61359474 -1.09323769 11.40449874 -1.09765625 9.1953125 C-1.10281754 8.50567413 -1.10797882 7.81603577 -1.11329651 7.10549927 C-1.11387171 2.22774341 -1.11387171 2.22774341 0 0 Z " fill="#7A6F3F" transform="translate(276,105)"/>
<path d="M0 0 C0.99 0.33 1.98 0.66 3 1 C3.2475 2.093125 3.495 3.18625 3.75 4.3125 C5.4588484 9.35360278 7.35159608 9.67579804 12 12 C14.4294516 15.6441774 14.16179575 17.71241272 14 22 C12.35 22.33 10.7 22.66 9 23 C8.979375 21.906875 8.95875 20.81375 8.9375 19.6875 C8.628125 18.470625 8.31875 17.25375 8 16 C4.51035987 14.23043357 4.51035987 14.23043357 1 13 C0.75765625 14.00417969 0.5153125 15.00835937 0.265625 16.04296875 C-5.50820226 39.740992 -5.50820226 39.740992 -9.1875 45.3125 C-13.17761619 47.70656971 -16.46891325 47.99143128 -21 47 C-24.0625 45.0625 -24.0625 45.0625 -26 42 C-27.03945854 37.24941677 -26.669717 34.05858493 -24.0625 29.9375 C-20.03294265 27.38818821 -16.66488876 27.17010406 -12 28 C-11.01 28.66 -10.02 29.32 -9 30 C-8.6596875 28.081875 -8.6596875 28.081875 -8.3125 26.125 C-7.25718768 20.85603058 -5.91077687 15.68263487 -4.5 10.5 C-4.17962769 9.29754639 -4.17962769 9.29754639 -3.8527832 8.07080078 C-2.23735898 2.23735898 -2.23735898 2.23735898 0 0 Z " fill="#F8D857" transform="translate(123,10)"/>
<path d="M0 0 C3.63 0 7.26 0 11 0 C11.25 6.625 11.25 6.625 9 10 C9.66 10 10.32 10 11 10 C11 23.86 11 37.72 11 52 C7.37 52 3.74 52 0 52 C0 38.14 0 24.28 0 10 C2.64 10 5.28 10 8 10 C8 9.34 8 8.68 8 8 C5.36 8 2.72 8 0 8 C0 5.36 0 2.72 0 0 Z " fill="#E7CA54" transform="translate(107,87)"/>
<path d="M0 0 C4.95 0 9.9 0 15 0 C15 8.91 15 17.82 15 27 C14.34 27 13.68 27 13 27 C12.34 28.32 11.68 29.64 11 31 C7.625 31.125 7.625 31.125 4 31 C3.34 30.34 2.68 29.68 2 29 C1.67 32.3 1.34 35.6 1 39 C0.34 38.67 -0.32 38.34 -1 38 C-0.67 25.46 -0.34 12.92 0 0 Z " fill="#393833" transform="translate(256,148)"/>
<path d="M0 0 C3.3 0 6.6 0 10 0 C10 13.86 10 27.72 10 42 C6.7 42 3.4 42 0 42 C0 28.14 0 14.28 0 0 Z " fill="#FBDA58" transform="translate(248,97)"/>
<path d="M0 0 C0.33 1.32 0.66 2.64 1 4 C3.64 4 6.28 4 9 4 C8.67 13.9 8.34 23.8 8 34 C7.67 34 7.34 34 7 34 C7 27.07 7 20.14 7 13 C6.34 13 5.68 13 5 13 C5 25.87 5 38.74 5 52 C4.67 52 4.34 52 4 52 C4 39.13 4 26.26 4 13 C3.34 13 2.68 13 2 13 C2 18.94 2 24.88 2 31 C1.67 31 1.34 31 1 31 C0.67 28.36 0.34 25.72 0 23 C-1.98 22.67 -3.96 22.34 -6 22 C-6.33 37.51 -6.66 53.02 -7 69 C-7.66 69 -8.32 69 -9 69 C-9.33 54.15 -9.66 39.3 -10 24 C-10.33 24 -10.66 24 -11 24 C-11 20.04 -11 16.08 -11 12 C-10.01 11.67 -9.02 11.34 -8 11 C-7.34 11.33 -6.68 11.66 -6 12 C-6 10.35 -6 8.7 -6 7 C-5.67 7 -5.34 7 -5 7 C-4.814375 5.5459375 -4.814375 5.5459375 -4.625 4.0625 C-4.41875 3.051875 -4.2125 2.04125 -4 1 C-2 0 -2 0 0 0 Z " fill="#6F663D" transform="translate(124,135)"/>
<path d="M0 0 C0.33 0 0.66 0 1 0 C1.33 4.29 1.66 8.58 2 13 C2.33 13 2.66 13 3 13 C3 18.28 3 23.56 3 29 C4.98 29 6.96 29 9 29 C9.95074449 31.85223347 10.16200041 33.81165084 10.24609375 36.78125 C10.29540039 38.16763672 10.29540039 38.16763672 10.34570312 39.58203125 C10.4068973 41.5272249 10.46418966 43.47254522 10.51757812 45.41796875 C10.56881836 46.80435547 10.56881836 46.80435547 10.62109375 48.21875 C10.6461499 49.06373047 10.67120605 49.90871094 10.69702148 50.77929688 C10.87402778 53.28460018 10.87402778 53.28460018 13 56 C13.33 53.36 13.66 50.72 14 48 C14.66 48 15.32 48 16 48 C16 52.29 16 56.58 16 61 C11.61364256 58.80682128 10.48743095 57.08649371 8 53 C7.67 55.64 7.34 58.28 7 61 C6.34 61 5.68 61 5 61 C5 56.71 5 52.42 5 48 C5.66 48 6.32 48 7 48 C7 42.06 7 36.12 7 30 C4.36 30 1.72 30 -1 30 C-1 31.98 -1 33.96 -1 36 C-1.33 36 -1.66 36 -2 36 C-2.495 38.475 -2.495 38.475 -3 41 C-5.67927341 36.98108988 -5.15601248 34.75838077 -5 30 C-5.66 30 -6.32 30 -7 30 C-7 32.97 -7 35.94 -7 39 C-7.33 39 -7.66 39 -8 39 C-8 31.74 -8 24.48 -8 17 C-7.34 17.99 -6.68 18.98 -6 20 C-5.34 20 -4.68 20 -4 20 C-3.67 19.01 -3.34 18.02 -3 17 C-2.67 18.98 -2.34 20.96 -2 23 C-1.67 23 -1.34 23 -1 23 C-0.67 15.41 -0.34 7.82 0 0 Z " fill="#756A3E" transform="translate(96,118)"/>
<path d="M0 0 C0.33 1.32 0.66 2.64 1 4 C1.99 4 2.98 4 4 4 C3.67 17.86 3.34 31.72 3 46 C0.69 46 -1.62 46 -4 46 C-4.0744389 41.9615943 -4.12873729 37.92345707 -4.16479492 33.88452148 C-4.17983432 32.51205483 -4.20027133 31.13963586 -4.22631836 29.76733398 C-4.26291221 27.78911344 -4.27816698 25.81053486 -4.29296875 23.83203125 C-4.31653442 22.04889526 -4.31653442 22.04889526 -4.34057617 20.22973633 C-3.96653548 16.68265076 -2.95466597 14.92821573 -1 12 C-0.43051948 8.88483253 -0.43051948 8.88483253 -0.3125 5.6875 C-0.21388672 4.08455078 -0.21388672 4.08455078 -0.11328125 2.44921875 C-0.05720703 1.23685547 -0.05720703 1.23685547 0 0 Z " fill="#5E573A" transform="translate(101,101)"/>
<path d="M0 0 C0.99 0 1.98 0 3 0 C3.33 0.99 3.66 1.98 4 3 C5.918125 3.185625 5.918125 3.185625 7.875 3.375 C11.75 3.75 11.75 3.75 14 6 C14 7.32 14 8.64 14 10 C11.03 9.01 8.06 8.02 5 7 C5.30035156 8.07378906 5.60070312 9.14757812 5.91015625 10.25390625 C6.29496961 11.68991709 6.67904504 13.12612583 7.0625 14.5625 C7.26166016 15.26697266 7.46082031 15.97144531 7.66601562 16.69726562 C8.91140083 21.43846893 9.173249 25.12886672 8 30 C6 32 6 32 3.0625 32.3125 C0 32 0 32 -1.875 30.9375 C-3.63763183 27.90185629 -3.37331109 25.42201828 -3 22 C0 20 0 20 4 20 C3.71125 18.89140625 3.4225 17.7828125 3.125 16.640625 C2.74974938 15.17714757 2.37476322 13.71360232 2 12.25 C1.80921875 11.52039062 1.6184375 10.79078125 1.421875 10.0390625 C0.53484036 6.55428354 0 3.61876278 0 0 Z " fill="#F1D256" transform="translate(124,39)"/>
<path d="M0 0 C1.32 0.33 2.64 0.66 4 1 C4 11.89 4 22.78 4 34 C4.66 34 5.32 34 6 34 C6 36.64 6 39.28 6 42 C3.36 42 0.72 42 -2 42 C-1.8820735 36.17913293 -1.75784958 30.3584481 -1.62768555 24.5378418 C-1.58426856 22.55610854 -1.54259863 20.57433622 -1.50268555 18.5925293 C-1.44514617 15.7503683 -1.38140555 12.90840517 -1.31640625 10.06640625 C-1.29969376 9.17474258 -1.28298126 8.28307892 -1.26576233 7.36439514 C-1.11387171 1.11387171 -1.11387171 1.11387171 0 0 Z " fill="#3D3B33" transform="translate(136,105)"/>
<path d="M0 0 C1.32 0.33 2.64 0.66 4 1 C4.33 3.31 4.66 5.62 5 8 C6.65 6.68 8.3 5.36 10 4 C10.144375 4.7425 10.28875 5.485 10.4375 6.25 C10.90187492 8.52027739 11.41863569 10.75759479 12 13 C13.98 13 15.96 13 18 13 C18 10.36 18 7.72 18 5 C18.33 5 18.66 5 19 5 C19 11.6 19 18.2 19 25 C17.27953495 22.7060466 15.5905705 20.38585576 14 18 C13.01 18 12.02 18 11 18 C11 19.65 11 21.3 11 23 C10.34 23 9.68 23 9 23 C9 22.34 9 21.68 9 21 C8.34 21 7.68 21 7 21 C7 20.01 7 19.02 7 18 C6.34 18 5.68 18 5 18 C4.01 20.97 3.02 23.94 2 27 C1.67 27 1.34 27 1 27 C1 22.71 1 18.42 1 14 C-0.32 14 -1.64 14 -3 14 C-3.33 14.66 -3.66 15.32 -4 16 C-4 15.34 -4 14.68 -4 14 C-4.99 14 -5.98 14 -7 14 C-6.67 13.34 -6.34 12.68 -6 12 C-5.34 12.33 -4.68 12.66 -4 13 C-3.67 12.34 -3.34 11.68 -3 11 C-3 11.66 -3 12.32 -3 13 C-2.01 13 -1.02 13 0 13 C0 8.71 0 4.42 0 0 Z " fill="#7B6F3F" transform="translate(66,134)"/>
<path d="M0 0 C0.33 0 0.66 0 1 0 C1 1.98 1 3.96 1 6 C1.99 6 2.98 6 4 6 C4.103125 5.360625 4.20625 4.72125 4.3125 4.0625 C4.539375 3.381875 4.76625 2.70125 5 2 C8 1 8 1 12 1 C12 4.3 12 7.6 12 11 C9.525 10.505 9.525 10.505 7 10 C7 9.01 7 8.02 7 7 C5.68 7 4.36 7 3 7 C3 8.65 3 10.3 3 12 C2.67 12 2.34 12 2 12 C2 10.35 2 8.7 2 7 C0.35 7 -1.3 7 -3 7 C-3.33 7.99 -3.66 8.98 -4 10 C-4 9.01 -4 8.02 -4 7 C-4.66 7 -5.32 7 -6 7 C-6.33 7.99 -6.66 8.98 -7 10 C-7.33 10.66 -7.66 11.32 -8 12 C-8.66 12 -9.32 12 -10 12 C-10 13.65 -10 15.3 -10 17 C-10.66 17 -11.32 17 -12 17 C-12.33 18.65 -12.66 20.3 -13 22 C-13.33 22 -13.66 22 -14 22 C-14 17.05 -14 12.1 -14 7 C-14.66 7 -15.32 7 -16 7 C-16 12.94 -16 18.88 -16 25 C-16.33 25 -16.66 25 -17 25 C-17 19.06 -17 13.12 -17 7 C-17.66 7 -18.32 7 -19 7 C-19 11.95 -19 16.9 -19 22 C-19.33 22 -19.66 22 -20 22 C-20.33 17.05 -20.66 12.1 -21 7 C-22.65 6.67 -24.3 6.34 -26 6 C-25.67 4.68 -25.34 3.36 -25 2 C-24.34 2.33 -23.68 2.66 -23 3 C-21.29636178 3.22622081 -19.58671299 3.40888473 -17.875 3.5625 C-16.96492188 3.64628906 -16.05484375 3.73007813 -15.1171875 3.81640625 C-14.41851562 3.87699219 -13.71984375 3.93757812 -13 4 C-13 4.66 -13 5.32 -13 6 C-8.71 6 -4.42 6 0 6 C0 4.02 0 2.04 0 0 Z " fill="#7E7240" transform="translate(324,141)"/>
<path d="M0 0 C0.33 0 0.66 0 1 0 C1 5.28 1 10.56 1 16 C0.34 16 -0.32 16 -1 16 C-1.33 16.99 -1.66 17.98 -2 19 C-2 18.01 -2 17.02 -2 16 C-2.66 16 -3.32 16 -4 16 C-4.33 17.32 -4.66 18.64 -5 20 C-5 18.68 -5 17.36 -5 16 C-6.32 16 -7.64 16 -9 16 C-9 16.99 -9 17.98 -9 19 C-9.66 19 -10.32 19 -11 19 C-11 18.01 -11 17.02 -11 16 C-11.66 16 -12.32 16 -13 16 C-13 17.98 -13 19.96 -13 22 C-13.33 22 -13.66 22 -14 22 C-14 20.02 -14 18.04 -14 16 C-14.66 16 -15.32 16 -16 16 C-16 17.32 -16 18.64 -16 20 C-16.66 20 -17.32 20 -18 20 C-18 18.68 -18 17.36 -18 16 C-18.66 16 -19.32 16 -20 16 C-20 17.32 -20 18.64 -20 20 C-20.66 20 -21.32 20 -22 20 C-21.9278125 20.85980469 -21.855625 21.71960938 -21.78125 22.60546875 C-21.14114331 30.75793867 -20.87776659 38.82394294 -21 47 C-21.99 47 -22.98 47 -24 47 C-24 33.8 -24 20.6 -24 7 C-21 11 -21 11 -21 15 C-20.01 15 -19.02 15 -18 15 C-17.67 14.01 -17.34 13.02 -17 12 C-17 12.99 -17 13.98 -17 15 C-16.34 15 -15.68 15 -15 15 C-15 12.36 -15 9.72 -15 7 C-14.67 7 -14.34 7 -14 7 C-14 9.64 -14 12.28 -14 15 C-13.34 15 -12.68 15 -12 15 C-12 13.68 -12 12.36 -12 11 C-11.34 11 -10.68 11 -10 11 C-10 12.32 -10 13.64 -10 15 C-8.68 15 -7.36 15 -6 15 C-6 13.35 -6 11.7 -6 10 C-5.67 10 -5.34 10 -5 10 C-5 11.65 -5 13.3 -5 15 C-4.34 15 -3.68 15 -3 15 C-2.67 13.68 -2.34 12.36 -2 11 C-2 12.32 -2 13.64 -2 15 C-1.34 15 -0.68 15 0 15 C0 10.05 0 5.1 0 0 Z " fill="#847741" transform="translate(157,132)"/>
<path d="M0 0 C5.94 0 11.88 0 18 0 C18 7 18 7 16.91015625 8.91796875 C14.06530656 10.52946847 11.6799165 10.35959655 8.4375 10.3125 C7.28121094 10.30863281 6.12492187 10.30476562 4.93359375 10.30078125 C2 10 2 10 0 8 C0 5.36 0 2.72 0 0 Z " fill="#F8D857" transform="translate(35,190)"/>
<path d="M0 0 C2.64 0 5.28 0 8 0 C7.67 2.97 7.34 5.94 7 9 C6.67 9 6.34 9 6 9 C5.67 14.94 5.34 20.88 5 27 C4.34 27 3.68 27 3 27 C3 31.95 3 36.9 3 42 C2.34 42 1.68 42 1 42 C0.505 21.21 0.505 21.21 0 0 Z " fill="#615A3B" transform="translate(95,148)"/>
<path d="M0 0 C1.32 0 2.64 0 4 0 C4.02514961 3.89199822 4.04306705 7.7839635 4.05493164 11.67602539 C4.06229736 13.63364327 4.07501826 15.59123871 4.08789062 17.54882812 C4.10875748 25.74950314 3.76696206 33.83492363 3 42 C2.01 42 1.02 42 0 42 C0 28.14 0 14.28 0 0 Z " fill="#373733" transform="translate(276,105)"/>
<path d="M0 0 C3.5625 0.3125 3.5625 0.3125 5.5 1.4375 C7.07358304 4.21441125 6.94670899 6.17479327 6.5625 9.3125 C5.5 11.6875 5.5 11.6875 3.5625 13.3125 C0.0625 13.8125 0.0625 13.8125 -3.4375 13.3125 C-5.4375 11.75 -5.4375 11.75 -6.4375 9.3125 C-5.98395669 0.54399606 -5.98395669 0.54399606 0 0 Z " fill="#D4D4D4" transform="translate(263.4375,165.6875)"/>
<path d="M0 0 C1.875 1.0625 1.875 1.0625 3 3 C3.63316583 8.90954774 3.63316583 8.90954774 1.875 11.9375 C-0.88980433 13.50422245 -2.88188517 13.38976435 -6 13 C-7.875 11.9375 -7.875 11.9375 -9 10 C-9.63316583 4.09045226 -9.63316583 4.09045226 -7.875 1.0625 C-5.11019567 -0.50422245 -3.11811483 -0.38976435 0 0 Z " fill="#848484" transform="translate(90,166)"/>
<path d="M0 0 C0.33 0 0.66 0 1 0 C1.0293908 3.64581598 1.04692874 7.29160087 1.0625 10.9375 C1.07087891 11.95908203 1.07925781 12.98066406 1.08789062 14.03320312 C1.10731234 20.1121997 0.79820318 25.9726232 0 32 C-0.66 32 -1.32 32 -2 32 C-2 31.34 -2 30.68 -2 30 C-3.98 30 -5.96 30 -8 30 C-8 25.71 -8 21.42 -8 17 C-5.36 17 -2.72 17 0 17 C0 11.39 0 5.78 0 0 Z " fill="#736B4A" transform="translate(170,149)"/>
<path d="M0 0 C1.65 0 3.3 0 5 0 C5 13.2 5 26.4 5 40 C4.67 40 4.34 40 4 40 C3.67 32.74 3.34 25.48 3 18 C2.67 18 2.34 18 2 18 C2 15.03 2 12.06 2 9 C1.01 9 0.02 9 -1 9 C-1 10.98 -1 12.96 -1 15 C-1.99 14.67 -2.98 14.34 -4 14 C-4 12.35 -4 10.7 -4 9 C-5.32 9 -6.64 9 -8 9 C-8 11.64 -8 14.28 -8 17 C-8.33 17 -8.66 17 -9 17 C-9.33 14.03 -9.66 11.06 -10 8 C-8.68 8 -7.36 8 -6 8 C-6 6.02 -6 4.04 -6 2 C-5.01 1.67 -4.02 1.34 -3 1 C-3 3.31 -3 5.62 -3 8 C-2.01 8 -1.02 8 0 8 C0 5.36 0 2.72 0 0 Z " fill="#6F653D" transform="translate(267,139)"/>
<path d="M0 0 C0.33 0 0.66 0 1 0 C1 9.24 1 18.48 1 28 C0.34 28 -0.32 28 -1 28 C-1 26.02 -1 24.04 -1 22 C-1.66 22 -2.32 22 -3 22 C-3 27.28 -3 32.56 -3 38 C-3.33 38 -3.66 38 -4 38 C-4.0744389 33.9615943 -4.12873729 29.92345707 -4.16479492 25.88452148 C-4.17983432 24.51205483 -4.20027133 23.13963586 -4.22631836 21.76733398 C-4.26291221 19.78911344 -4.27816698 17.81053486 -4.29296875 15.83203125 C-4.31653442 14.04889526 -4.31653442 14.04889526 -4.34057617 12.22973633 C-3.96716687 8.68863835 -2.99394382 6.90007873 -1 4 C-0.30420546 1.80869466 -0.30420546 1.80869466 0 0 Z " fill="#3A3833" transform="translate(101,109)"/>
<path d="M0 0 C0.99 0.33 1.98 0.66 3 1 C3 9.58 3 18.16 3 27 C1.68 27 0.36 27 -1 27 C-1.02886537 22.68751391 -1.04675255 18.37505238 -1.0625 14.0625 C-1.07087891 12.83080078 -1.07925781 11.59910156 -1.08789062 10.33007812 C-1.09111328 9.16025391 -1.09433594 7.99042969 -1.09765625 6.78515625 C-1.10289307 5.70113525 -1.10812988 4.61711426 -1.11352539 3.50024414 C-1 1 -1 1 0 0 Z " fill="#555038" transform="translate(168,104)"/>
<path d="M0 0 C0.33 0 0.66 0 1 0 C1 2.64 1 5.28 1 8 C1.66 8 2.32 8 3 8 C3 6.35 3 4.7 3 3 C3.33 3 3.66 3 4 3 C4 4.65 4 6.3 4 8 C5.65 8 7.3 8 9 8 C9 13.61 9 19.22 9 25 C8.67 25 8.34 25 8 25 C8 19.72 8 14.44 8 9 C7.34 9 6.68 9 6 9 C6 14.94 6 20.88 6 27 C6.66 27.33 7.32 27.66 8 28 C6.02 28 4.04 28 2 28 C2 29.65 2 31.3 2 33 C3.65 33 5.3 33 7 33 C7 33.33 7 33.66 7 34 C5.35 34 3.7 34 2 34 C2 35.65 2 37.3 2 39 C3.65 39 5.3 39 7 39 C7 39.33 7 39.66 7 40 C5.02 40 3.04 40 1 40 C1 35.71 1 31.42 1 27 C2.32 27 3.64 27 5 27 C4.67 24.03 4.34 21.06 4 18 C3.34 18 2.68 18 2 18 C2 15.03 2 12.06 2 9 C1.34 9 0.68 9 0 9 C0 6.03 0 3.06 0 0 Z " fill="#9A9273" transform="translate(294,139)"/>
<path d="M0 0 C0.33 0 0.66 0 1 0 C1.01981934 0.73637695 1.03963867 1.47275391 1.06005859 2.23144531 C1.15537828 5.57132056 1.26502996 8.91057639 1.375 12.25 C1.4059375 13.40886719 1.436875 14.56773438 1.46875 15.76171875 C1.50742187 16.87675781 1.54609375 17.99179688 1.5859375 19.140625 C1.6173584 20.16704102 1.6487793 21.19345703 1.68115234 22.25097656 C1.99636625 24.96867073 2.61032351 26.66924435 4 29 C5.45823212 29.0270043 6.91660675 29.04639787 8.375 29.0625 C9.59316406 29.07990234 9.59316406 29.07990234 10.8359375 29.09765625 C13.04937142 29.14466334 13.04937142 29.14466334 15 28 C14.125 32.875 14.125 32.875 13 34 C9.33655389 34.13568319 6.49384279 34.16461426 3 33 C2.01 33.99 1.02 34.98 0 36 C0 24.12 0 12.24 0 0 Z " fill="#7B6F3F" transform="translate(297,104)"/>
<path d="M0 0 C0.33 0 0.66 0 1 0 C1.33 9.24 1.66 18.48 2 28 C2.66 28.33 3.32 28.66 4 29 C3.67 31.97 3.34 34.94 3 38 C2.34 38 1.68 38 1 38 C1 38.66 1 39.32 1 40 C-0.32 39.67 -1.64 39.34 -3 39 C-2.67 32.4 -2.34 25.8 -2 19 C-1.34 19 -0.68 19 0 19 C0 12.73 0 6.46 0 0 Z " fill="#514C38" transform="translate(87,120)"/>
<path d="M0 0 C0.66 0 1.32 0 2 0 C3.20029908 2.40059817 3.11459743 3.89360649 3.09765625 6.5703125 C3.09282227 7.91416016 3.09282227 7.91416016 3.08789062 9.28515625 C3.07951172 10.22230469 3.07113281 11.15945312 3.0625 12.125 C3.05798828 13.06988281 3.05347656 14.01476562 3.04882812 14.98828125 C3.03702357 17.32558387 3.02055759 19.66276061 3 22 C1.68 22 0.36 22 -1 22 C-1.02887814 18.52085059 -1.04675687 15.04173169 -1.0625 11.5625 C-1.07087891 10.56927734 -1.07925781 9.57605469 -1.08789062 8.55273438 C-1.09111328 7.60849609 -1.09433594 6.66425781 -1.09765625 5.69140625 C-1.10289307 4.81685791 -1.10812988 3.94230957 -1.11352539 3.04125977 C-1 1 -1 1 0 0 Z " fill="#363632" transform="translate(309,104)"/>
<path d="M0 0 C1.32 0 2.64 0 4 0 C4 1.32 4 2.64 4 4 C3.34 4 2.68 4 2 4 C2.0721875 4.85980469 2.144375 5.71960938 2.21875 6.60546875 C2.85885669 14.75793867 3.12223341 22.82394294 3 31 C2.01 31 1.02 31 0 31 C0 20.77 0 10.54 0 0 Z " fill="#898571" transform="translate(133,148)"/>
<path d="M0 0 C6 0 6 0 8 1 C8.06978435 3.51223656 8.0831468 5.68588986 7.4375 8.125 C6.77876382 10.20883241 6.77876382 10.20883241 8 13 C7.34 13 6.68 13 6 13 C5.34 11.35 4.68 9.7 4 8 C3.34 8 2.68 8 2 8 C2 9.65 2 11.3 2 13 C1.34 13 0.68 13 0 13 C0 8.71 0 4.42 0 0 Z " fill="#B6B6B6" transform="translate(223,166)"/>
<path d="M0 0 C0.99 0 1.98 0 3 0 C4.38671875 1.75 4.38671875 1.75 5.6875 4 C6.12449219 4.7425 6.56148438 5.485 7.01171875 6.25 C7.33785156 6.8275 7.66398437 7.405 8 8 C8.33 5.36 8.66 2.72 9 0 C9.66 0 10.32 0 11 0 C11 4.29 11 8.58 11 13 C6.61364256 10.80682128 5.48743095 9.08649371 3 5 C2.67 7.64 2.34 10.28 2 13 C1.34 13 0.68 13 0 13 C0 8.71 0 4.42 0 0 Z " fill="#D8D8D6" transform="translate(101,166)"/>
<path d="M0 0 C0.99 0 1.98 0 3 0 C3.67057887 1.7902061 4.3363469 3.58221489 5 5.375 C5.556875 6.87160156 5.556875 6.87160156 6.125 8.3984375 C7 11 7 11 7 13 C6.34 13 5.68 13 5 13 C4.67 12.34 4.34 11.68 4 11 C2.35 11 0.7 11 -1 11 C-1.33 11.66 -1.66 12.32 -2 13 C-2.66 13 -3.32 13 -4 13 C-3.52343588 11.20763933 -3.04366502 9.41613103 -2.5625 7.625 C-2.29566406 6.62726563 -2.02882812 5.62953125 -1.75390625 4.6015625 C-1 2 -1 2 0 0 Z " fill="#A3A3A3" transform="translate(243,166)"/>
<path d="M0 0 C0.99 0 1.98 0 3 0 C3.67057887 1.7902061 4.3363469 3.58221489 5 5.375 C5.556875 6.87160156 5.556875 6.87160156 6.125 8.3984375 C7 11 7 11 7 13 C6.34 13 5.68 13 5 13 C4.67 12.34 4.34 11.68 4 11 C2.35 11 0.7 11 -1 11 C-1.33 11.66 -1.66 12.32 -2 13 C-2.66 13 -3.32 13 -4 13 C-3.52343588 11.20763933 -3.04366502 9.41613103 -2.5625 7.625 C-2.29566406 6.62726563 -2.02882812 5.62953125 -1.75390625 4.6015625 C-1 2 -1 2 0 0 Z " fill="#A3A3A3" transform="translate(208,166)"/>
<path d="M0 0 C0.33 0 0.66 0 1 0 C1.144375 0.7425 1.28875 1.485 1.4375 2.25 C1.90187492 4.52027739 2.41863569 6.75759479 3 9 C4.98 9 6.96 9 9 9 C9 6.36 9 3.72 9 1 C9.33 1 9.66 1 10 1 C10 7.6 10 14.2 10 21 C5 14.33333333 5 14.33333333 5 10 C3.35 10.33 1.7 10.66 0 11 C0 12.65 0 14.3 0 16 C-0.33 16 -0.66 16 -1 16 C-1 14.02 -1 12.04 -1 10 C-1.66 9.67 -2.32 9.34 -3 9 C-2.25 2.25 -2.25 2.25 0 0 Z " fill="#7F7240" transform="translate(75,138)"/>
<path d="M0 0 C2.5 0.25 2.5 0.25 4.5 2.25 C4.125 5.875 4.125 5.875 3.5 9.25 C0.625 9.375 0.625 9.375 -2.5 9.25 C-4.5 7.25 -4.5 7.25 -4.75 4.75 C-4.40058445 1.25584452 -3.49415548 0.34941555 0 0 Z " fill="#353534" transform="translate(263.5,167.75)"/>
<path d="M0 0 C3.3 0 6.6 0 10 0 C10 2.31 10 4.62 10 7 C6.7 7 3.4 7 0 7 C0 4.69 0 2.38 0 0 Z " fill="#F1D256" transform="translate(248,87)"/>
<path d="M0 0 C3.465 1.98 3.465 1.98 7 4 C7 6.64 7 9.28 7 12 C4.69 12 2.38 12 0 12 C0 8.04 0 4.08 0 0 Z " fill="#4E4A37" transform="translate(158,135)"/>
<path d="M0 0 C0.66 0 1.32 0 2 0 C3.2890625 1.75 3.2890625 1.75 4.625 4 C5.07101563 4.7425 5.51703125 5.485 5.9765625 6.25 C6.31429687 6.8275 6.65203125 7.405 7 8 C7.33 5.36 7.66 2.72 8 0 C8.66 0 9.32 0 10 0 C10 4.29 10 8.58 10 13 C5.01222852 10.50611426 4.48741151 8.79715076 2 4 C1.67 6.97 1.34 9.94 1 13 C0.67 13 0.34 13 0 13 C0 8.71 0 4.42 0 0 Z " fill="#E9E9E9" transform="translate(144,166)"/>
<path d="M0 0 C0.66 0 1.32 0 2 0 C2.33 1.32 2.66 2.64 3 4 C3.99 2.68 4.98 1.36 6 0 C6.99 0.33 7.98 0.66 9 1 C8.319375 1.5775 7.63875 2.155 6.9375 2.75 C4.76692885 4.75808047 4.76692885 4.75808047 5.0625 7 C6.12170852 9.25964485 7.41857514 11.07478713 9 13 C7.125 12.6875 7.125 12.6875 5 12 C4.34 11.01 3.68 10.02 3 9 C2.67 10.32 2.34 11.64 2 13 C1.34 13 0.68 13 0 13 C0 8.71 0 4.42 0 0 Z " fill="#E1E1E0" transform="translate(278,166)"/>
<path d="M0 0 C0.66 0 1.32 0 2 0 C2.33 1.32 2.66 2.64 3 4 C3.99 2.68 4.98 1.36 6 0 C6.99 0.33 7.98 0.66 9 1 C8.319375 1.5775 7.63875 2.155 6.9375 2.75 C4.76692885 4.75808047 4.76692885 4.75808047 5.0625 7 C6.12170852 9.25964485 7.41857514 11.07478713 9 13 C7.125 12.6875 7.125 12.6875 5 12 C4.34 11.01 3.68 10.02 3 9 C2.67 10.32 2.34 11.64 2 13 C1.34 13 0.68 13 0 13 C0 8.71 0 4.42 0 0 Z " fill="#E1E1E0" transform="translate(188,166)"/>
<path d="M0 0 C0.99 0 1.98 0 3 0 C3 5.94 3 11.88 3 18 C2.01 18 1.02 18 0 18 C0 12.06 0 6.12 0 0 Z " fill="#5A5339" transform="translate(167,148)"/>
<path d="M0 0 C2.97 0 5.94 0 9 0 C9 1.98 9 3.96 9 6 C6.03 6 3.06 6 0 6 C0 4.02 0 2.04 0 0 Z " fill="#FFDE59" transform="translate(108,88)"/>
<path d="M0 0 C0.33 0 0.66 0 1 0 C1.33 2.97 1.66 5.94 2 9 C1.01 9 0.02 9 -1 9 C-1 10.98 -1 12.96 -1 15 C-1.99 14.67 -2.98 14.34 -4 14 C-4 12.35 -4 10.7 -4 9 C-5.32 9 -6.64 9 -8 9 C-8 11.64 -8 14.28 -8 17 C-8.33 17 -8.66 17 -9 17 C-9.33 14.03 -9.66 11.06 -10 8 C-8.68 8 -7.36 8 -6 8 C-6 6.02 -6 4.04 -6 2 C-5.01 1.67 -4.02 1.34 -3 1 C-3 3.31 -3 5.62 -3 8 C-2.01 8 -1.02 8 0 8 C0 5.36 0 2.72 0 0 Z " fill="#7C7140" transform="translate(267,139)"/>
<path d="M0 0 C0.99 0 1.98 0 3 0 C3 5.61 3 11.22 3 17 C2.34 17 1.68 17 1 17 C1 19.64 1 22.28 1 25 C0.67 25 0.34 25 0 25 C0 16.75 0 8.5 0 0 Z " fill="#3E3C34" transform="translate(100,149)"/>
<path d="M0 0 C1.32 0.33 2.64 0.66 4 1 C4 4.3 4 7.6 4 11 C2.68 11.33 1.36 11.66 0 12 C0 8.04 0 4.08 0 0 Z " fill="#403E34" transform="translate(87,99)"/>
<path d="M0 0 C0.66 0 1.32 0 2 0 C2 0.66 2 1.32 2 2 C2.66 2.33 3.32 2.66 4 3 C3.34 3 2.68 3 2 3 C2 8.61 2 14.22 2 20 C1.34 20 0.68 20 0 20 C0 13.4 0 6.8 0 0 Z " fill="#5F583A" transform="translate(166,179)"/>
<path d="M0 0 C1.32 0 2.64 0 4 0 C5.4783226 2.95664519 5.06032783 5.74229737 5 9 C3.35 8.67 1.7 8.34 0 8 C0 5.36 0 2.72 0 0 Z " fill="#4C4837" transform="translate(227,121)"/>
<path d="M0 0 C2.31 0 4.62 0 7 0 C7 0.33 7 0.66 7 1 C5.35 1 3.7 1 2 1 C2 2.65 2 4.3 2 6 C3.65 6 5.3 6 7 6 C7 6.33 7 6.66 7 7 C5.35 7 3.7 7 2 7 C2 8.65 2 10.3 2 12 C3.65 12 5.3 12 7 12 C7 12.33 7 12.66 7 13 C4.69 13 2.38 13 0 13 C0 8.71 0 4.42 0 0 Z " fill="#E5E5E4" transform="translate(162,166)"/>
<path d="M0 0 C0.99 0.33 1.98 0.66 3 1 C3 4.96 3 8.92 3 13 C2.01 13 1.02 13 0 13 C0 8.71 0 4.42 0 0 Z " fill="#615A3B" transform="translate(66,134)"/>
<path d="M0 0 C0.99 0.33 1.98 0.66 3 1 C5.63804589 0.60602665 5.63804589 0.60602665 8 0 C7.67 1.32 7.34 2.64 7 4 C6.34 4 5.68 4 5 4 C5 5.65 5 7.3 5 9 C4.34 9 3.68 9 3 9 C3 8.34 3 7.68 3 7 C2.34 7 1.68 7 1 7 C0.67 4.69 0.34 2.38 0 0 Z " fill="#5A5439" transform="translate(72,148)"/>
<path d="M0 0 C0.33 0 0.66 0 1 0 C1 1.98 1 3.96 1 6 C1.66 6 2.32 6 3 6 C3 9.3 3 12.6 3 16 C2.01 16 1.02 16 0 16 C0 10.72 0 5.44 0 0 Z " fill="#504B38" transform="translate(99,131)"/>
<path d="M0 0 C0.66 0 1.32 0 2 0 C2 3.63 2 7.26 2 11 C3.32 11 4.64 11 6 11 C6 11.66 6 12.32 6 13 C4.02 13 2.04 13 0 13 C0 8.71 0 4.42 0 0 Z " fill="#DADADA" transform="translate(120,166)"/>
<path d="M0 0 C0.99 0 1.98 0 3 0 C3 2.64 3 5.28 3 8 C1.35 8 -0.3 8 -2 8 C-2 6.35 -2 4.7 -2 3 C-1.34 3 -0.68 3 0 3 C0 2.01 0 1.02 0 0 Z " fill="#504B37" transform="translate(81,139)"/>
<path d="M0 0 C2 1 2 1 2.6328125 2.84765625 C2.87644531 3.94400391 2.87644531 3.94400391 3.125 5.0625 C3.29257813 5.79597656 3.46015625 6.52945313 3.6328125 7.28515625 C3.75398437 7.85105469 3.87515625 8.41695312 4 9 C3.34 9 2.68 9 2 9 C1.67 8.34 1.34 7.68 1 7 C-0.65 7 -2.3 7 -4 7 C-4.33 7.66 -4.66 8.32 -5 9 C-5.66 9 -6.32 9 -7 9 C-6.34 7.02 -5.68 5.04 -5 3 C-4.67 3.66 -4.34 4.32 -4 5 C-2.35 5 -0.7 5 1 5 C0.67 3.35 0.34 1.7 0 0 Z " fill="#E7E7E7" transform="translate(246,170)"/>
<path d="M0 0 C2 1 2 1 2.6328125 2.84765625 C2.87644531 3.94400391 2.87644531 3.94400391 3.125 5.0625 C3.29257813 5.79597656 3.46015625 6.52945313 3.6328125 7.28515625 C3.75398437 7.85105469 3.87515625 8.41695312 4 9 C3.34 9 2.68 9 2 9 C1.67 8.34 1.34 7.68 1 7 C-0.65 7 -2.3 7 -4 7 C-4.33 7.66 -4.66 8.32 -5 9 C-5.66 9 -6.32 9 -7 9 C-6.34 7.02 -5.68 5.04 -5 3 C-4.67 3.66 -4.34 4.32 -4 5 C-2.35 5 -0.7 5 1 5 C0.67 3.35 0.34 1.7 0 0 Z " fill="#E7E7E7" transform="translate(211,170)"/>
<path d="M0 0 C1.32 0 2.64 0 4 0 C4 2.64 4 5.28 4 8 C2.68 8 1.36 8 0 8 C0 5.36 0 2.72 0 0 Z " fill="#4A4636" transform="translate(252,139)"/>
<path d="M0 0 C1.32 0 2.64 0 4 0 C4 2.64 4 5.28 4 8 C2.68 8 1.36 8 0 8 C0 5.36 0 2.72 0 0 Z " fill="#4A4636" transform="translate(129,139)"/>
<path d="M0 0 C1.32 0 2.64 0 4 0 C4 1.65 4 3.3 4 5 C3.34 5 2.68 5 2 5 C2 6.65 2 8.3 2 10 C1.34 10 0.68 10 0 10 C0 6.7 0 3.4 0 0 Z " fill="#625B3B" transform="translate(312,148)"/>
<path d="M0 0 C0.33 0 0.66 0 1 0 C1 3.96 1 7.92 1 12 C0.01 12 -0.98 12 -2 12 C-2 9.03 -2 6.06 -2 3 C-1.34 3 -0.68 3 0 3 C0 2.01 0 1.02 0 0 Z " fill="#71673D" transform="translate(92,135)"/>
<path d="M0 0 C1.18851563 0.00902344 2.37703125 0.01804688 3.6015625 0.02734375 C4.51679687 0.03894531 5.43203125 0.05054688 6.375 0.0625 C6.375 0.3925 6.375 0.7225 6.375 1.0625 C5.1375 1.206875 3.9 1.35125 2.625 1.5 C0.33952146 1.77861841 -1.77009238 2.10068221 -4 2.6875 C-5.625 3.0625 -5.625 3.0625 -7.625 2.0625 C-7.625 4.3725 -7.625 6.6825 -7.625 9.0625 C-7.955 9.0625 -8.285 9.0625 -8.625 9.0625 C-8.625 6.4225 -8.625 3.7825 -8.625 1.0625 C-5.74084117 -0.37957941 -3.20778472 -0.03144887 0 0 Z " fill="#827541" transform="translate(42.625,187.9375)"/>
<path d="M0 0 C0.66 0 1.32 0 2 0 C2 4.29 2 8.58 2 13 C1.01 12.67 0.02 12.34 -1 12 C-0.67 8.04 -0.34 4.08 0 0 Z " fill="#DEDEDE" transform="translate(110,166)"/>
<path d="M0 0 C0.66 0 1.32 0 2 0 C2 1.32 2 2.64 2 4 C3.32 4.33 4.64 4.66 6 5 C5.01 5 4.02 5 3 5 C3 5.99 3 6.98 3 8 C2.34 8 1.68 8 1 8 C1 7.01 1 6.02 1 5 C0.34 5 -0.32 5 -1 5 C-1 6.98 -1 8.96 -1 11 C-1.33 11 -1.66 11 -2 11 C-2 8.69 -2 6.38 -2 4 C-1.34 4 -0.68 4 0 4 C0 2.68 0 1.36 0 0 Z " fill="#73683E" transform="translate(145,143)"/>
<path d="M0 0 C0 3.3 0 6.6 0 10 C-0.99 10 -1.98 10 -3 10 C-3 7.03 -3 4.06 -3 1 C-1 0 -1 0 0 0 Z " fill="#4B4736" transform="translate(178,137)"/>
<path d="M0 0 C1.98 0 3.96 0 6 0 C5.01 0.495 5.01 0.495 4 1 C4.33 2.32 4.66 3.64 5 5 C3.35 5 1.7 5 0 5 C0 3.35 0 1.7 0 0 Z " fill="#77746B" transform="translate(296,167)"/>
<path d="M0 0 C0.99 0 1.98 0 3 0 C3 3.3 3 6.6 3 10 C2.67 8.68 2.34 7.36 2 6 C1.34 6 0.68 6 0 6 C0 4.02 0 2.04 0 0 Z " fill="#8A7C43" transform="translate(333,142)"/>
<path d="M0 0 C0.625 1.875 0.625 1.875 1 4 C0.34 4.66 -0.32 5.32 -1 6 C-2.32 6 -3.64 6 -5 6 C-5 5.01 -5 4.02 -5 3 C-2.5 1.3125 -2.5 1.3125 0 0 Z " fill="#595339" transform="translate(311,132)"/>
<path d="M0 0 C0 0.99 0 1.98 0 3 C-2.64 3 -5.28 3 -8 3 C-8 2.34 -8 1.68 -8 1 C-2.25 -1.125 -2.25 -1.125 0 0 Z " fill="#575139" transform="translate(319,144)"/>
<path d="M0 0 C0.99 0 1.98 0 3 0 C3 2.31 3 4.62 3 7 C2.01 7 1.02 7 0 7 C0 4.69 0 2.38 0 0 Z " fill="#595339" transform="translate(166,140)"/>
<path d="M0 0 C1.65 0 3.3 0 5 0 C4.01 0.495 4.01 0.495 3 1 C3 1.99 3 2.98 3 4 C3.66 4.33 4.32 4.66 5 5 C3.35 5 1.7 5 0 5 C0 3.35 0 1.7 0 0 Z " fill="#716E60" transform="translate(164,173)"/>
<path d="M0 0 C2.31 0.66 4.62 1.32 7 2 C7 2.66 7 3.32 7 4 C4.69 4 2.38 4 0 4 C0 2.68 0 1.36 0 0 Z " fill="#4C4837" transform="translate(298,143)"/>
<path d="M0 0 C1.32 0 2.64 0 4 0 C4.33 1.32 4.66 2.64 5 4 C3.35 4 1.7 4 0 4 C0 2.68 0 1.36 0 0 Z " fill="#625F50" transform="translate(164,168)"/>
</svg>
